<?xml version="1.0" encoding="utf-8"?>
<!-- Generator: Adobe Illustrator 26.0.3, SVG Export Plug-In . SVG Version: 6.00 Build 0)  -->
<svg version="1.1"
	 id="svg124018" xmlns:cc="http://creativecommons.org/ns#" xmlns:dc="http://purl.org/dc/elements/1.1/" xmlns:rdf="http://www.w3.org/1999/02/22-rdf-syntax-ns#" xmlns:svg="http://www.w3.org/2000/svg"
	 xmlns="http://www.w3.org/2000/svg" xmlns:xlink="http://www.w3.org/1999/xlink" x="0px" y="0px" viewBox="0 0 441.2 57"
	 style="enable-background:new 0 0 441.2 57;" xml:space="preserve">
<style type="text/css">
	.st0{fill:#FCFCFC;}
	.st1{fill:#EBD768;}
</style>
<g>
	<path class="st0" d="M0,37.2h12.1c1.2,6.3,6.8,9.5,14.1,9.5c6.6,0,13.2-2.1,13.2-6.6c0-11-37.2-2.5-37.2-23.5
		C2.2,5.9,12.1,0,24.6,0c14.1,0,23.8,7.8,25.1,19.8H37.5c-1.2-5.5-4.7-9.5-13.9-9.5c-5.4,0-9.5,2.5-9.5,5.6
		c0,9.7,37.2,2.9,37.2,24.2C51.3,51.3,40,57,27.8,57C11.6,57,1.4,50.5,0,37.2z"/>
	<path class="st0" d="M55.6,34.5c0-14.7,7.5-22.6,22.8-22.6c7.8,0,12.4,2.1,14.9,5.9v-5.1h11.1v43.6H93.3v-5.1
		C90.7,55,86.2,57,78.4,57C62.6,57,55.6,48.6,55.6,34.5z M80,46.3c8.4,0,13.3-4.1,13.3-11.9c0-7.4-4.7-11.9-13.3-11.9
		c-8.4,0-13.3,4.1-13.3,11.9C66.7,41.9,71.4,46.3,80,46.3z"/>
	<polygon class="st0" points="118,12.7 131.2,56.2 119.7,56.2 106.4,12.7 	"/>
	<polygon class="st1" points="144.4,12.7 156,12.7 142.8,56.2 131.2,56.2 	"/>
	<polygon class="st1" points="207.5,0.8 227.3,56.2 223.1,56.2 203.3,0.8 	"/>
	<polygon class="st0" points="199.1,0.8 203.3,0.8 183.5,56.2 179.3,56.2 	"/>
	<path class="st1" d="M255.1,12.7h-4l13.2,43.6h4L255.1,12.7z M217.2,12.7L230,56.2h4l-12.8-43.6H217.2z"/>
	<polygon class="st0" points="285.1,12.7 281.2,12.7 268.3,56.2 272.3,56.2 	"/>
	<polygon class="st0" points="247.2,12.7 234,56.2 237.9,56.2 251.2,12.7 	"/>
	<path class="st1" d="M282.5,34.5c0-14.7,8.3-22.6,22.3-22.6c9.5,0,15.4,3.6,18.5,10v-9.2h4v43.6h-4V47c-3.1,6.6-9.2,10-18.5,10
		C290.4,57,282.5,48.6,282.5,34.5z M304.9,53.1c12.4,0,18.5-5.7,18.5-18.6c0-12.4-5.7-18.6-18.5-18.6c-12.4,0-18.4,5.7-18.4,18.6
		C286.5,46.9,292.2,53.1,304.9,53.1z"/>
	<path class="st1" d="M331.7,12.7h4v7.8c3.2-5.2,8.6-7.8,16.6-7.8h5.7v3.6h-5.7c-11.4,0-16.6,6.4-16.6,20.8v19.2h-4V12.7z"/>
	<path class="st1" d="M356.1,34.5c0-14.7,8.3-22.6,22.3-22.6c9.5,0,15.4,3.6,18.5,10V0.8h4v55.4h-4V47c-3.1,6.6-9.2,10-18.5,10
		C363.9,57,356.1,48.6,356.1,34.5z M378.4,53.1c12.4,0,18.5-5.7,18.5-18.6c0-12.4-5.7-18.6-18.5-18.6c-12.4,0-18.4,5.7-18.4,18.6
		C360.1,46.9,365.8,53.1,378.4,53.1z"/>
	<path class="st1" d="M403.6,44.4h4.5c1.7,5.9,6.7,8.6,15.1,8.6c8.2,0,14-2.5,14-8.1c0-11.3-31.7-5.5-31.7-21.5
		c0-7.8,8.2-11.6,15.8-11.6c12.2,0,16.6,6.6,18.5,12.7h-4.4c-1.7-4.8-4.7-8.7-14.1-8.7c-6.4,0-11.8,2.5-11.8,7.6
		c0,11.2,31.7,6.2,31.7,21.5c0,8.1-8.3,12-18,12C413,57,406,52.8,403.6,44.4z"/>
</g>
</svg>
